<svg width="2279" height="588" viewBox="0 0 2279 588" fill="none" xmlns="http://www.w3.org/2000/svg">
<path d="M622.59 391.8L630.01 390.78C626.99 369.12 616.01 349.49 596.44 330.85C595.75 333.51 595 336.3 594.17 339.11C593.42 341.77 592.58 344.5 591.66 347.28C590.19 351.74 588.52 356.35 586.63 361.07C584 367.62 581.24 373.67 578.46 379.2C590.25 397.48 586.63 408.34 583.22 413.31C578.94 419.59 569.07 426.06 546.3 421.24L545.28 421.03C541.84 420.25 538.25 419.26 534.63 418.07C533.34 417.68 532.06 417.2 530.74 416.72L536.6 410.86L542.58 404.88C553.23 391.89 561.79 377.47 568.13 361.91C575.94 342.73 580.07 322.44 580.43 301.56C580.46 300.57 580.46 299.59 580.46 298.63C580.46 240.85 551.14 189.8 506.67 159.7C480.07 141.69 448.02 131.15 413.58 131.15C321.54 131.15 246.68 206.28 246.68 298.62C246.68 390.96 321.54 466.09 413.58 466.09C433.06 466.09 452.06 462.77 470.16 456.22C467.53 454.51 464.86 452.78 462.23 451.01C459.57 449.24 456.93 447.42 454.27 445.59C452.41 444.27 450.53 442.99 448.67 441.64C438.53 434.4 428.83 426.92 419.56 419.23C416.63 416.81 413.73 414.32 410.88 411.87C407.8 409.18 404.78 406.51 401.81 403.76C349.18 397.86 308.15 352.98 308.15 298.61C308.15 291.94 308.78 285.41 309.95 279.07C319.11 230.03 362.07 192.8 413.57 192.8C465.07 192.8 504.89 226.31 516.14 274.28C516.5 275.84 516.83 277.39 517.13 278.95C514.65 277.84 512.16 276.83 509.77 275.87C506.72 274.64 503.61 273.51 500.55 272.46C475.51 264.08 453.84 263 436.1 269.26C429.82 271.47 413.18 277.31 402.53 293.32C394.96 304.63 393.61 316.09 393.04 320.97C391.18 336.47 395.01 348.35 396.63 353.44C402.52 371.72 418.77 399.88 462.7 430.31C482.78 444.22 504.08 454.49 526.01 460.8C537.56 464.09 548.63 467.29 561.23 467.29C565.9 467.29 570.77 466.84 575.95 465.82C596.24 461.78 611.32 452.83 620.74 439.22C633.97 420.13 631.06 398.86 629.99 390.84L622.57 391.8H622.59ZM526.84 339.44C519.84 359.04 507.75 376.6 491.92 390.25L487.43 394.11L482.64 390.64C477.43 386.84 472.62 382.98 468.31 379.18C464.9 376.16 461.67 373.08 458.74 370.02C438.99 349.58 432.32 331.06 440.4 319.21C447.67 308.53 464.49 306.7 487.8 314.06C493.13 315.74 498.51 317.83 503.9 320.25C510.33 323.09 516.98 326.53 523.62 330.45L528.95 333.59L526.86 339.42L526.84 339.44Z" fill="#5D84EC"/>
<path d="M129.06 50.3198H59.5802V137.36H0.430176V204.24H59.5802V358.58C59.5802 400.61 71.1802 429.43 94.3202 445.11C117.46 460.75 155.62 465.34 208.82 458.94V396.54C191.23 397.4 176.54 397.5 164.73 396.85C152.96 396.23 144.06 393.02 138.07 387.23C132.05 381.41 129.07 371.9 129.07 358.58V204.24H208.82V137.36H129.07V50.3198H129.06Z" fill="#5D84EC"/>
<path d="M935.91 183.67C909.76 147.22 872.24 129.01 823.36 129.01C779.65 129.01 741.89 145.51 710.16 178.51C678.87 211.13 663.23 250.97 663.23 298.14C663.23 345.31 678.87 385.83 710.16 418.42C741.48 451.01 779.2 467.3 823.36 467.3C872.24 467.3 909.75 449.3 935.91 413.25V587.54H1005.39V137.36H935.91V183.67ZM906.99 372.1C887.69 391.41 863.45 401.02 834.32 401.02C805.19 401.02 780.92 391.4 761.65 372.1C742.35 351.94 732.69 327.29 732.69 298.13C732.69 268.97 742.34 244.12 761.65 224.81C780.92 205.09 805.16 195.24 834.32 195.24C863.48 195.24 887.68 205.1 906.99 224.81C926.3 244.12 935.91 268.55 935.91 298.13C935.91 327.71 926.29 352.38 906.99 372.1Z" fill="#5D84EC"/>
<path d="M1341.08 183.02C1314.93 147.01 1277.41 129.01 1228.53 129.01C1184.37 129.01 1146.65 145.3 1115.33 177.89C1084.04 210.48 1068.4 250.56 1068.4 298.14C1068.4 345.72 1084.04 385.829 1115.33 418.419C1146.65 451.009 1184.37 467.3 1228.53 467.3C1277.41 467.3 1314.92 449.09 1341.08 412.64V458.949H1410.57V8.72949H1341.08V183.03V183.02ZM1312.16 372.1C1292.85 391.41 1268.62 401.02 1239.49 401.02C1210.36 401.02 1186.09 391.4 1166.79 372.1C1147.52 351.94 1137.87 327.29 1137.87 298.13C1137.87 268.97 1147.52 244.12 1166.79 224.81C1186.09 205.09 1210.33 195.24 1239.49 195.24C1268.65 195.24 1292.85 205.1 1312.16 224.81C1331.43 244.12 1341.08 268.55 1341.08 298.13C1341.08 327.71 1331.43 352.38 1312.16 372.1Z" fill="#5D84EC"/>
<path d="M1526.3 0.379883C1513.87 0.379883 1503.37 4.85987 1494.81 13.8699C1486.22 22.4599 1481.94 32.7597 1481.94 44.7397C1481.94 56.7197 1486.22 67.2598 1494.81 76.2698C1503.81 84.8598 1514.29 89.1399 1526.3 89.1399C1538.31 89.1399 1548.62 84.8598 1557.17 76.2698C1566.17 67.2698 1570.69 56.7597 1570.69 44.7397C1570.69 32.7197 1566.38 22.4599 1557.82 13.8699C1549.23 4.86987 1538.75 0.379883 1526.3 0.379883Z" fill="#5D84EC"/>
<path d="M1561.04 137.36H1491.59V458.94H1561.04V137.36Z" fill="#5D84EC"/>
<path d="M1992.57 129.01C1947.97 129.01 1915.18 145.95 1894.16 179.81C1874.44 145.96 1844.01 129.01 1802.84 129.01C1761.67 129.01 1731.47 144.65 1710.87 175.94V137.36H1641.42V458.94H1710.87V278.86C1710.87 251.41 1717.41 230.39 1730.52 215.81C1743.6 201.26 1760.85 193.94 1782.28 193.94C1801.58 193.94 1816.47 200.07 1826.98 212.29C1837.49 224.51 1842.73 241.76 1842.73 264.04V458.94H1912.18V278.86C1912.18 250.96 1918.41 229.88 1930.83 215.5C1943.26 201.12 1960.44 193.94 1982.28 193.94C2001.59 193.94 2016.82 200.17 2027.98 212.59C2039.1 225.05 2044.68 242.2 2044.68 264.04V458.94H2114.13V259.56C2114.13 219.68 2102.97 187.95 2080.69 164.37C2058.41 140.79 2029.04 129.01 1992.58 129.01H1992.57Z" fill="#5D84EC"/>
<path d="M2264.62 384.32C2255.17 374.91 2243.81 370.18 2230.53 370.18C2217.25 370.18 2205.34 374.9 2196.13 384.32C2186.89 393.77 2182.3 405.13 2182.3 418.41C2182.3 431.69 2186.99 443.06 2196.44 452.5C2205.89 461.91 2217.25 466.64 2230.53 466.64C2243.81 466.64 2255.17 461.92 2264.62 452.5C2274.03 443.05 2278.76 431.69 2278.76 418.41C2278.76 405.13 2274.04 393.77 2264.62 384.32Z" fill="#5D84EC"/>
</svg>
